<svg xmlns="http://www.w3.org/2000/svg" width="1024" height="1024" viewBox="0 0 1024 1024">
<g transform="translate(-37.413003881202144 -0.25810641221437436) scale(1.073072273205473)" stroke-linejoin="round" stroke-linecap="round">
<defs><clipPath id="cBF"><path d="M 189.4 578.7 L 667.3 735.1 L 676.8 688.0 L 158.2 518.2 Z"/></clipPath><clipPath id="cFrame"><path clip-rule="evenodd" d="M 340.4 273.9 L 888.1 453.3 L 683.6 690.0 L 135.9 510.7 Z M 358.1 309.7 L 503.8 357.3 L 426.3 447.0 L 280.6 399.3 Z M 521.3 363.1 L 667.0 410.8 L 589.5 500.5 L 443.8 452.8 Z M 271.3 410.1 L 417.0 457.8 L 339.6 547.5 L 193.9 499.8 Z M 684.4 416.5 L 830.1 464.2 L 752.7 553.9 L 607.0 506.2 Z M 434.5 463.5 L 580.2 511.2 L 502.7 600.9 L 357.0 553.2 Z M 597.7 516.9 L 743.4 564.6 L 665.9 654.3 L 520.2 606.6 Z"/></clipPath><clipPath id="cup0"><path d="M 358.1 309.7 L 503.8 357.3 L 426.3 447.0 L 280.6 399.3 Z"/></clipPath><clipPath id="vis0"><path d="M 358.1 309.7 L 503.8 357.3 L 426.3 447.0 L 280.6 399.3 Z"/><path d="M 377.5 313.6 L 467.8 351.1 L 406.9 406.7 L 316.6 369.2 Z"/><path d="M 316.6 387.4 L 406.9 424.9 L 406.9 406.7 L 316.6 369.2 Z"/><path d="M 406.9 424.9 L 467.8 369.3 L 467.8 351.1 L 406.9 406.7 Z"/></clipPath><clipPath id="cup1"><path d="M 521.3 363.1 L 667.0 410.8 L 589.5 500.5 L 443.8 452.8 Z"/></clipPath><clipPath id="vis1"><path d="M 521.3 363.1 L 667.0 410.8 L 589.5 500.5 L 443.8 452.8 Z"/><path d="M 523.8 366.7 L 623.1 388.9 L 586.9 450.0 L 487.7 427.8 Z"/><path d="M 487.7 451.2 L 586.9 473.4 L 586.9 450.0 L 487.7 427.8 Z"/><path d="M 586.9 473.4 L 623.1 412.3 L 623.1 388.9 L 586.9 450.0 Z"/></clipPath><clipPath id="cup2"><path d="M 271.3 410.1 L 417.0 457.8 L 339.6 547.5 L 193.9 499.8 Z"/></clipPath><clipPath id="vis2"><path d="M 271.3 410.1 L 417.0 457.8 L 339.6 547.5 L 193.9 499.8 Z"/><path d="M 288.1 417.0 L 380.5 452.5 L 322.8 509.4 L 230.4 473.9 Z"/><path d="M 230.4 489.5 L 322.8 525.0 L 322.8 509.4 L 230.4 473.9 Z"/><path d="M 322.8 525.0 L 380.5 468.1 L 380.5 452.5 L 322.8 509.4 Z"/></clipPath><clipPath id="cup3"><path d="M 684.4 416.5 L 830.1 464.2 L 752.7 553.9 L 607.0 506.2 Z"/></clipPath><clipPath id="vis3"><path d="M 684.4 416.5 L 830.1 464.2 L 752.7 553.9 L 607.0 506.2 Z"/><path d="M 689.7 420.4 L 789.9 446.6 L 747.4 508.3 L 647.2 482.1 Z"/><path d="M 647.2 502.9 L 747.4 529.1 L 747.4 508.3 L 647.2 482.1 Z"/><path d="M 747.4 529.1 L 789.9 467.4 L 789.9 446.6 L 747.4 508.3 Z"/></clipPath><clipPath id="cup4"><path d="M 434.5 463.5 L 580.2 511.2 L 502.7 600.9 L 357.0 553.2 Z"/></clipPath><clipPath id="vis4"><path d="M 434.5 463.5 L 580.2 511.2 L 502.7 600.9 L 357.0 553.2 Z"/><path d="M 458.2 468.5 L 542.6 507.6 L 479.0 559.5 L 394.7 520.4 Z"/><path d="M 394.7 538.6 L 479.0 577.7 L 479.0 559.5 L 394.7 520.4 Z"/><path d="M 479.0 577.7 L 542.6 525.8 L 542.6 507.6 L 479.0 559.5 Z"/></clipPath><clipPath id="cup5"><path d="M 597.7 516.9 L 743.4 564.6 L 665.9 654.3 L 520.2 606.6 Z"/></clipPath><clipPath id="vis5"><path d="M 597.7 516.9 L 743.4 564.6 L 665.9 654.3 L 520.2 606.6 Z"/><path d="M 605.5 515.1 L 704.1 543.4 L 658.1 604.2 L 559.4 575.8 Z"/><path d="M 559.4 601.8 L 658.1 630.2 L 658.1 604.2 L 559.4 575.8 Z"/><path d="M 658.1 630.2 L 704.1 569.4 L 704.1 543.4 L 658.1 604.2 Z"/></clipPath></defs>
<path d="M 189.4 578.7 L 667.3 735.1 L 676.8 688.0 L 158.2 518.2 Z" fill="#1c1f3f" stroke="#1c1f3f" stroke-width="57.703475847934335"/><path d="M 667.3 735.1 L 834.6 541.3 L 865.8 469.2 L 676.8 688.0 Z" fill="#1c1f3f" stroke="#1c1f3f" stroke-width="57.703475847934335"/><path d="M 340.4 273.9 L 888.1 453.3 L 683.6 690.0 L 135.9 510.7 Z" fill="#1c1f3f" stroke="#1c1f3f" stroke-width="57.703475847934335"/><path d="M 135.9 522.4 L 683.6 701.7 L 683.6 690.0 L 135.9 510.7 Z" fill="#1c1f3f" stroke="#1c1f3f" stroke-width="57.703475847934335"/><path d="M 683.6 701.7 L 888.1 465.0 L 888.1 453.3 L 683.6 690.0 Z" fill="#1c1f3f" stroke="#1c1f3f" stroke-width="57.703475847934335"/><path d="M 377.5 313.6 L 467.8 351.1 L 406.9 406.7 L 316.6 369.2 Z" fill="#1c1f3f" stroke="#1c1f3f" stroke-width="57.703475847934335"/><path d="M 316.6 387.4 L 406.9 424.9 L 406.9 406.7 L 316.6 369.2 Z" fill="#1c1f3f" stroke="#1c1f3f" stroke-width="57.703475847934335"/><path d="M 406.9 424.9 L 467.8 369.3 L 467.8 351.1 L 406.9 406.7 Z" fill="#1c1f3f" stroke="#1c1f3f" stroke-width="57.703475847934335"/><path d="M 523.8 366.7 L 623.1 388.9 L 586.9 450.0 L 487.7 427.8 Z" fill="#1c1f3f" stroke="#1c1f3f" stroke-width="57.703475847934335"/><path d="M 487.7 451.2 L 586.9 473.4 L 586.9 450.0 L 487.7 427.8 Z" fill="#1c1f3f" stroke="#1c1f3f" stroke-width="57.703475847934335"/><path d="M 586.9 473.4 L 623.1 412.3 L 623.1 388.9 L 586.9 450.0 Z" fill="#1c1f3f" stroke="#1c1f3f" stroke-width="57.703475847934335"/><path d="M 288.1 417.0 L 380.5 452.5 L 322.8 509.4 L 230.4 473.9 Z" fill="#1c1f3f" stroke="#1c1f3f" stroke-width="57.703475847934335"/><path d="M 230.4 489.5 L 322.8 525.0 L 322.8 509.4 L 230.4 473.9 Z" fill="#1c1f3f" stroke="#1c1f3f" stroke-width="57.703475847934335"/><path d="M 322.8 525.0 L 380.5 468.1 L 380.5 452.5 L 322.8 509.4 Z" fill="#1c1f3f" stroke="#1c1f3f" stroke-width="57.703475847934335"/><path d="M 689.7 420.4 L 789.9 446.6 L 747.4 508.3 L 647.2 482.1 Z" fill="#1c1f3f" stroke="#1c1f3f" stroke-width="57.703475847934335"/><path d="M 647.2 502.9 L 747.4 529.1 L 747.4 508.3 L 647.2 482.1 Z" fill="#1c1f3f" stroke="#1c1f3f" stroke-width="57.703475847934335"/><path d="M 747.4 529.1 L 789.9 467.4 L 789.9 446.6 L 747.4 508.3 Z" fill="#1c1f3f" stroke="#1c1f3f" stroke-width="57.703475847934335"/><path d="M 458.2 468.5 L 542.6 507.6 L 479.0 559.5 L 394.7 520.4 Z" fill="#1c1f3f" stroke="#1c1f3f" stroke-width="57.703475847934335"/><path d="M 394.7 538.6 L 479.0 577.7 L 479.0 559.5 L 394.7 520.4 Z" fill="#1c1f3f" stroke="#1c1f3f" stroke-width="57.703475847934335"/><path d="M 479.0 577.7 L 542.6 525.8 L 542.6 507.6 L 479.0 559.5 Z" fill="#1c1f3f" stroke="#1c1f3f" stroke-width="57.703475847934335"/><path d="M 605.5 515.1 L 704.1 543.4 L 658.1 604.2 L 559.4 575.8 Z" fill="#1c1f3f" stroke="#1c1f3f" stroke-width="57.703475847934335"/><path d="M 559.4 601.8 L 658.1 630.2 L 658.1 604.2 L 559.4 575.8 Z" fill="#1c1f3f" stroke="#1c1f3f" stroke-width="57.703475847934335"/><path d="M 658.1 630.2 L 704.1 569.4 L 704.1 543.4 L 658.1 604.2 Z" fill="#1c1f3f" stroke="#1c1f3f" stroke-width="57.703475847934335"/>
<path d="M 189.4 578.7 L 667.3 735.1 L 676.8 688.0 L 158.2 518.2 Z" fill="#3f86d6"/><path d="M 189.4 578.7 L 667.3 735.1 L 676.8 688.0 L 158.2 518.2 Z" fill="none" stroke="#1c1f3f" stroke-width="18.638073594294035"/><path d="M 667.3 735.1 L 834.6 541.3 L 865.8 469.2 L 676.8 688.0 Z" fill="#2b60ad"/><path d="M 667.3 735.1 L 834.6 541.3 L 865.8 469.2 L 676.8 688.0 Z" fill="none" stroke="#1c1f3f" stroke-width="18.638073594294035"/><g clip-path="url(#cBF)"><path d="M 216.4 556.8 L 574.8 674.1" stroke="#bfe4ff" stroke-width="11.18284415657642" fill="none"/><path d="M 595.2 680.8 L 618.5 688.4" stroke="#bfe4ff" stroke-width="11.18284415657642" fill="none"/><path d="M 129.0 601.0 L 193.1 622.0 L 193.1 518.0 L 129.0 497.0 Z" fill="0.08"/></g><path d="M 189.4 578.7 L 667.3 735.1 L 676.8 688.0 L 158.2 518.2 Z" fill="none" stroke="#1c1f3f" stroke-width="18.638073594294035"/><path d="M 158.2 518.2 L 676.8 688.0 L 683.6 701.7 L 135.9 522.4 Z" fill="#2b60ad"/><path d="M 158.2 518.2 L 676.8 688.0 L 683.6 701.7 L 135.9 522.4 Z" fill="none" stroke="#1c1f3f" stroke-width="8.387133117432317"/><path d="M 676.8 688.0 L 865.8 469.2 L 888.1 465.0 L 683.6 701.7 Z" fill="#2b60ad"/><path d="M 676.8 688.0 L 865.8 469.2 L 888.1 465.0 L 683.6 701.7 Z" fill="none" stroke="#1c1f3f" stroke-width="8.387133117432317"/><path d="M 135.9 522.4 L 683.6 701.7 L 683.6 690.0 L 135.9 510.7 Z" fill="#4b93e0"/><path d="M 135.9 522.4 L 683.6 701.7 L 683.6 690.0 L 135.9 510.7 Z" fill="none" stroke="#1c1f3f" stroke-width="18.638073594294035"/><path d="M 683.6 701.7 L 888.1 465.0 L 888.1 453.3 L 683.6 690.0 Z" fill="#3470bf"/><path d="M 683.6 701.7 L 888.1 465.0 L 888.1 453.3 L 683.6 690.0 Z" fill="none" stroke="#1c1f3f" stroke-width="18.638073594294035"/><path fill-rule="evenodd" d="M 340.4 273.9 L 888.1 453.3 L 683.6 690.0 L 135.9 510.7 Z M 358.1 309.7 L 503.8 357.3 L 426.3 447.0 L 280.6 399.3 Z M 521.3 363.1 L 667.0 410.8 L 589.5 500.5 L 443.8 452.8 Z M 271.3 410.1 L 417.0 457.8 L 339.6 547.5 L 193.9 499.8 Z M 684.4 416.5 L 830.1 464.2 L 752.7 553.9 L 607.0 506.2 Z M 434.5 463.5 L 580.2 511.2 L 502.7 600.9 L 357.0 553.2 Z M 597.7 516.9 L 743.4 564.6 L 665.9 654.3 L 520.2 606.6 Z" fill="#5fa9ee"/><g clip-path="url(#cFrame)"><path d="M 340.4 273.9 L 888.1 453.3 L 880.4 462.2 L 347.2 287.7 L 150.4 515.5 L 135.9 510.7 Z" fill="0.08"/></g><path d="M 340.4 273.9 L 888.1 453.3 L 683.6 690.0 L 135.9 510.7 Z" fill="none" stroke="#1c1f3f" stroke-width="18.638073594294035"/><g clip-path="url(#cup0)"><path d="M 364.9 383.2 L 481.5 421.4 L 419.5 493.1 L 303.0 455.0 Z" fill="#2a5ea9"/><path d="M 358.1 309.7 L 503.8 357.3 L 481.5 421.4 L 364.9 383.2 Z" fill="#4f97e4"/><path d="M 358.1 309.7 L 280.6 399.3 L 303.0 455.0 L 364.9 383.2 Z" fill="#3371c2"/><path d="M 358.1 309.7 L 364.9 383.2" stroke="#2a5ea9" stroke-width="8.387133117432317"/></g><path d="M 280.6 399.3 L 358.1 309.7 L 503.8 357.3" fill="none" stroke="#1c1f3f" stroke-width="10.903273052662012"/><g clip-path="url(#vis0)"><path d="M 316.6 447.2 L 406.9 484.7 L 406.9 406.7 L 316.6 369.2 Z" fill="#d3edfb"/><path d="M 316.6 447.2 L 406.9 484.7 L 406.9 406.7 L 316.6 369.2 Z" fill="none" stroke="#1c1f3f" stroke-width="11.741986364405243"/><path d="M 406.9 484.7 L 467.8 429.1 L 467.8 351.1 L 406.9 406.7 Z" fill="#a5d0eb"/><path d="M 406.9 484.7 L 467.8 429.1 L 467.8 351.1 L 406.9 406.7 Z" fill="none" stroke="#1c1f3f" stroke-width="11.741986364405243"/><path d="M 377.5 313.6 L 467.8 351.1 L 406.9 406.7 L 316.6 369.2 Z" fill="#f3fbff"/><path d="M 377.5 313.6 L 467.8 351.1 L 406.9 406.7 L 316.6 369.2 Z" fill="none" stroke="#1c1f3f" stroke-width="11.741986364405243"/><ellipse cx="357.2" cy="396.1" rx="16.8" ry="5.6" fill="#bde5f6"/><path d="M 381.2 325.2 L 439.9 349.6" stroke="#c8f5ff" stroke-width="7.455229437717614" fill="none"/><path d="M 375.1 330.8 L 344.7 358.6" stroke="#ffffff" stroke-width="7.455229437717614" fill="none"/></g><path d="M 280.6 399.3 L 426.3 447.0 L 503.8 357.3" fill="none" stroke="#1c1f3f" stroke-width="10.903273052662012"/><g clip-path="url(#cup1)"><path d="M 528.1 436.6 L 644.6 474.8 L 582.7 546.5 L 466.1 508.4 Z" fill="#2a5ea9"/><path d="M 521.3 363.1 L 667.0 410.8 L 644.6 474.8 L 528.1 436.6 Z" fill="#4f97e4"/><path d="M 521.3 363.1 L 443.8 452.8 L 466.1 508.4 L 528.1 436.6 Z" fill="#3371c2"/><path d="M 521.3 363.1 L 528.1 436.6" stroke="#2a5ea9" stroke-width="8.387133117432317"/></g><path d="M 443.8 452.8 L 521.3 363.1 L 667.0 410.8" fill="none" stroke="#1c1f3f" stroke-width="10.903273052662012"/><g clip-path="url(#vis1)"><path d="M 487.7 511.0 L 586.9 533.2 L 586.9 450.0 L 487.7 427.8 Z" fill="#d3edfb"/><path d="M 487.7 511.0 L 586.9 533.2 L 586.9 450.0 L 487.7 427.8 Z" fill="none" stroke="#1c1f3f" stroke-width="11.741986364405243"/><path d="M 586.9 533.2 L 623.1 472.1 L 623.1 388.9 L 586.9 450.0 Z" fill="#a5d0eb"/><path d="M 586.9 533.2 L 623.1 472.1 L 623.1 388.9 L 586.9 450.0 Z" fill="none" stroke="#1c1f3f" stroke-width="11.741986364405243"/><path d="M 523.8 366.7 L 623.1 388.9 L 586.9 450.0 L 487.7 427.8 Z" fill="#f3fbff"/><path d="M 523.8 366.7 L 623.1 388.9 L 586.9 450.0 L 487.7 427.8 Z" fill="none" stroke="#1c1f3f" stroke-width="11.741986364405243"/><ellipse cx="532.4" cy="450.7" rx="16.8" ry="5.6" fill="#bde5f6"/><path d="M 531.7 377.1 L 596.2 391.6" stroke="#c8f5ff" stroke-width="7.455229437717614" fill="none"/><path d="M 528.1 383.2 L 510.0 413.8" stroke="#ffffff" stroke-width="7.455229437717614" fill="none"/></g><path d="M 443.8 452.8 L 589.5 500.5 L 667.0 410.8" fill="none" stroke="#1c1f3f" stroke-width="10.903273052662012"/><g clip-path="url(#cup2)"><path d="M 278.2 483.7 L 394.7 521.8 L 332.7 593.6 L 216.2 555.4 Z" fill="#2a5ea9"/><path d="M 271.3 410.1 L 417.0 457.8 L 394.7 521.8 L 278.2 483.7 Z" fill="#4f97e4"/><path d="M 271.3 410.1 L 193.9 499.8 L 216.2 555.4 L 278.2 483.7 Z" fill="#3371c2"/><path d="M 271.3 410.1 L 278.2 483.7" stroke="#2a5ea9" stroke-width="8.387133117432317"/></g><path d="M 193.9 499.8 L 271.3 410.1 L 417.0 457.8" fill="none" stroke="#1c1f3f" stroke-width="10.903273052662012"/><g clip-path="url(#vis2)"><path d="M 230.4 549.3 L 322.8 584.8 L 322.8 509.4 L 230.4 473.9 Z" fill="#d3edfb"/><path d="M 230.4 549.3 L 322.8 584.8 L 322.8 509.4 L 230.4 473.9 Z" fill="none" stroke="#1c1f3f" stroke-width="11.741986364405243"/><path d="M 322.8 584.8 L 380.5 527.9 L 380.5 452.5 L 322.8 509.4 Z" fill="#a5d0eb"/><path d="M 322.8 584.8 L 380.5 527.9 L 380.5 452.5 L 322.8 509.4 Z" fill="none" stroke="#1c1f3f" stroke-width="11.741986364405243"/><path d="M 288.1 417.0 L 380.5 452.5 L 322.8 509.4 L 230.4 473.9 Z" fill="#f3fbff"/><path d="M 288.1 417.0 L 380.5 452.5 L 322.8 509.4 L 230.4 473.9 Z" fill="none" stroke="#1c1f3f" stroke-width="11.741986364405243"/><ellipse cx="272.0" cy="498.4" rx="16.8" ry="5.6" fill="#bde5f6"/><path d="M 292.5 428.6 L 352.5 451.6" stroke="#c8f5ff" stroke-width="7.455229437717614" fill="none"/><path d="M 286.7 434.2 L 257.8 462.7" stroke="#ffffff" stroke-width="7.455229437717614" fill="none"/></g><path d="M 193.9 499.8 L 339.6 547.5 L 417.0 457.8" fill="none" stroke="#1c1f3f" stroke-width="10.903273052662012"/><g clip-path="url(#cup3)"><path d="M 691.3 490.0 L 807.8 528.2 L 745.8 599.9 L 629.3 561.8 Z" fill="#2a5ea9"/><path d="M 684.4 416.5 L 830.1 464.2 L 807.8 528.2 L 691.3 490.0 Z" fill="#4f97e4"/><path d="M 684.4 416.5 L 607.0 506.2 L 629.3 561.8 L 691.3 490.0 Z" fill="#3371c2"/><path d="M 684.4 416.5 L 691.3 490.0" stroke="#2a5ea9" stroke-width="8.387133117432317"/></g><path d="M 607.0 506.2 L 684.4 416.5 L 830.1 464.2" fill="none" stroke="#1c1f3f" stroke-width="10.903273052662012"/><g clip-path="url(#vis3)"><path d="M 647.2 562.7 L 747.4 588.9 L 747.4 508.3 L 647.2 482.1 Z" fill="#d3edfb"/><path d="M 647.2 562.7 L 747.4 588.9 L 747.4 508.3 L 647.2 482.1 Z" fill="none" stroke="#1c1f3f" stroke-width="11.741986364405243"/><path d="M 747.4 588.9 L 789.9 527.2 L 789.9 446.6 L 747.4 508.3 Z" fill="#a5d0eb"/><path d="M 747.4 588.9 L 789.9 527.2 L 789.9 446.6 L 747.4 508.3 Z" fill="none" stroke="#1c1f3f" stroke-width="11.741986364405243"/><path d="M 689.7 420.4 L 789.9 446.6 L 747.4 508.3 L 647.2 482.1 Z" fill="#f3fbff"/><path d="M 689.7 420.4 L 789.9 446.6 L 747.4 508.3 L 647.2 482.1 Z" fill="none" stroke="#1c1f3f" stroke-width="11.741986364405243"/><ellipse cx="692.3" cy="505.4" rx="16.8" ry="5.6" fill="#bde5f6"/><path d="M 696.9 431.4 L 762.1 448.4" stroke="#c8f5ff" stroke-width="7.455229437717614" fill="none"/><path d="M 692.7 437.6 L 671.4 468.4" stroke="#ffffff" stroke-width="7.455229437717614" fill="none"/></g><path d="M 607.0 506.2 L 752.7 553.9 L 830.1 464.2" fill="none" stroke="#1c1f3f" stroke-width="10.903273052662012"/><g clip-path="url(#cup4)"><path d="M 441.3 537.1 L 557.9 575.2 L 495.9 647.0 L 379.4 608.8 Z" fill="#2a5ea9"/><path d="M 434.5 463.5 L 580.2 511.2 L 557.9 575.2 L 441.3 537.1 Z" fill="#4f97e4"/><path d="M 434.5 463.5 L 357.0 553.2 L 379.4 608.8 L 441.3 537.1 Z" fill="#3371c2"/><path d="M 434.5 463.5 L 441.3 537.1" stroke="#2a5ea9" stroke-width="8.387133117432317"/></g><path d="M 357.0 553.2 L 434.5 463.5 L 580.2 511.2" fill="none" stroke="#1c1f3f" stroke-width="10.903273052662012"/><g clip-path="url(#vis4)"><path d="M 394.7 598.4 L 479.0 637.5 L 479.0 559.5 L 394.7 520.4 Z" fill="#d3edfb"/><path d="M 394.7 598.4 L 479.0 637.5 L 479.0 559.5 L 394.7 520.4 Z" fill="none" stroke="#1c1f3f" stroke-width="11.741986364405243"/><path d="M 479.0 637.5 L 542.6 585.6 L 542.6 507.6 L 479.0 559.5 Z" fill="#a5d0eb"/><path d="M 479.0 637.5 L 542.6 585.6 L 542.6 507.6 L 479.0 559.5 Z" fill="none" stroke="#1c1f3f" stroke-width="11.741986364405243"/><path d="M 458.2 468.5 L 542.6 507.6 L 479.0 559.5 L 394.7 520.4 Z" fill="#f3fbff"/><path d="M 458.2 468.5 L 542.6 507.6 L 479.0 559.5 L 394.7 520.4 Z" fill="none" stroke="#1c1f3f" stroke-width="11.741986364405243"/><ellipse cx="432.6" cy="548.0" rx="16.8" ry="5.6" fill="#bde5f6"/><path d="M 460.8 479.9 L 515.6 505.3" stroke="#c8f5ff" stroke-width="7.455229437717614" fill="none"/><path d="M 454.5 485.1 L 422.7 511.0" stroke="#ffffff" stroke-width="7.455229437717614" fill="none"/></g><path d="M 357.0 553.2 L 502.7 600.9 L 580.2 511.2" fill="none" stroke="#1c1f3f" stroke-width="10.903273052662012"/><g clip-path="url(#cup5)"><path d="M 604.5 590.5 L 721.0 628.6 L 659.1 700.4 L 542.5 662.2 Z" fill="#2a5ea9"/><path d="M 597.7 516.9 L 743.4 564.6 L 721.0 628.6 L 604.5 590.5 Z" fill="#4f97e4"/><path d="M 597.7 516.9 L 520.2 606.6 L 542.5 662.2 L 604.5 590.5 Z" fill="#3371c2"/><path d="M 597.7 516.9 L 604.5 590.5" stroke="#2a5ea9" stroke-width="8.387133117432317"/></g><path d="M 520.2 606.6 L 597.7 516.9 L 743.4 564.6" fill="none" stroke="#1c1f3f" stroke-width="10.903273052662012"/><g clip-path="url(#vis5)"><path d="M 559.4 661.7 L 658.1 690.0 L 658.1 604.2 L 559.4 575.8 Z" fill="#d3edfb"/><path d="M 559.4 661.7 L 658.1 690.0 L 658.1 604.2 L 559.4 575.8 Z" fill="none" stroke="#1c1f3f" stroke-width="11.741986364405243"/><path d="M 658.1 690.0 L 704.1 629.2 L 704.1 543.4 L 658.1 604.2 Z" fill="#a5d0eb"/><path d="M 658.1 690.0 L 704.1 629.2 L 704.1 543.4 L 658.1 604.2 Z" fill="none" stroke="#1c1f3f" stroke-width="11.741986364405243"/><path d="M 605.5 515.1 L 704.1 543.4 L 658.1 604.2 L 559.4 575.8 Z" fill="#f3fbff"/><path d="M 605.5 515.1 L 704.1 543.4 L 658.1 604.2 L 559.4 575.8 Z" fill="none" stroke="#1c1f3f" stroke-width="11.741986364405243"/><ellipse cx="603.8" cy="602.9" rx="16.8" ry="5.6" fill="#bde5f6"/><path d="M 612.0 526.2 L 676.2 544.6" stroke="#c8f5ff" stroke-width="7.455229437717614" fill="none"/><path d="M 607.4 532.3 L 584.4 562.7" stroke="#ffffff" stroke-width="7.455229437717614" fill="none"/></g><path d="M 520.2 606.6 L 665.9 654.3 L 743.4 564.6" fill="none" stroke="#1c1f3f" stroke-width="10.903273052662012"/>
<g opacity="0.5" fill="#cfefff"><ellipse cx="369.5" cy="321.1" rx="65.2" ry="28.0"/><ellipse cx="425.4" cy="306.2" rx="55.9" ry="31.7"/><ellipse cx="476.7" cy="319.2" rx="48.5" ry="24.2"/><ellipse cx="322.9" cy="328.5" rx="39.1" ry="18.6"/><ellipse cx="706.7" cy="440.2" rx="50.3" ry="22.4"/><ellipse cx="753.3" cy="430.9" rx="42.9" ry="24.2"/></g><g opacity="0.62" fill="#cfefff"><path d="M 444.6 279.0 L 442.1 277.5 L 440.9 276.8 L 440.4 276.7 L 440.5 277.4 L 440.8 278.9 L 440.8 281.1 L 440.2 283.2 L 439.4 284.5 L 438.9 284.8 L 438.9 284.4 L 439.6 283.5 L 440.8 282.3 L 442.5 280.9 L 444.6 279.4 L 447.1 277.8 L 449.9 276.1 L 453.0 274.4 L 456.3 272.6 L 459.8 270.7 L 463.5 268.8 L 467.2 266.8 L 471.1 264.7 L 475.0 262.6 L 479.0 260.4 L 482.9 258.1 L 486.8 255.7 L 490.6 253.2 L 494.4 250.5 L 498.0 247.8 L 501.5 244.9 L 504.8 241.8 L 507.8 238.6 L 510.6 235.2 L 513.2 231.6 L 515.4 227.8 L 517.2 223.8 L 518.5 219.7 L 519.4 215.4 L 519.6 212.0 L 520.7 208.2 L 522.6 205.1 L 525.2 202.6 L 528.3 200.8 L 531.7 199.8 L 535.2 199.8 L 538.6 200.6 L 541.6 202.2 L 544.1 204.4 L 546.0 207.2 L 547.0 210.4 L 547.3 213.7 L 546.7 216.9 L 545.4 219.8 L 543.4 222.4 L 544.3 223.4 L 547.2 221.2 L 549.5 218.1 L 551.0 214.2 L 551.5 209.9 L 550.8 205.5 L 548.9 201.1 L 545.8 197.3 L 541.7 194.2 L 536.7 192.2 L 531.3 191.5 L 525.6 192.2 L 520.1 194.5 L 515.2 198.1 L 511.2 203.1 L 508.7 208.8 L 507.7 212.8 L 506.6 215.6 L 505.2 218.2 L 503.6 220.7 L 501.6 223.1 L 499.4 225.3 L 496.9 227.5 L 494.2 229.7 L 491.3 231.7 L 488.1 233.7 L 484.8 235.5 L 481.3 237.4 L 477.6 239.1 L 473.9 240.8 L 470.1 242.4 L 466.2 244.0 L 462.3 245.5 L 458.3 247.0 L 454.4 248.4 L 450.5 249.8 L 446.7 251.2 L 443.0 252.6 L 439.4 254.0 L 435.8 255.4 L 432.4 256.9 L 429.1 258.5 L 425.9 260.2 L 422.8 262.1 L 419.8 264.3 L 416.8 267.1 L 414.1 270.6 L 412.0 275.2 L 410.9 280.7 L 411.3 286.4 L 413.0 291.6 L 415.5 296.0 L 418.5 299.8 L 421.9 303.1 L 425.2 305.8 Z"/><path d="M 725.1 418.2 L 728.0 416.2 L 730.9 413.9 L 733.6 411.5 L 735.9 408.7 L 737.9 405.7 L 739.5 402.3 L 740.3 398.6 L 740.5 394.9 L 740.0 391.3 L 738.9 388.1 L 737.4 385.3 L 735.7 382.9 L 733.8 380.8 L 731.8 378.9 L 729.6 377.1 L 727.4 375.4 L 725.1 373.8 L 722.7 372.2 L 720.2 370.6 L 717.6 369.1 L 715.0 367.6 L 712.3 366.1 L 709.5 364.6 L 706.8 363.0 L 704.0 361.5 L 701.2 360.0 L 698.4 358.4 L 695.7 356.8 L 693.0 355.2 L 690.3 353.5 L 687.7 351.9 L 685.2 350.2 L 682.8 348.5 L 680.5 346.8 L 678.3 345.0 L 676.3 343.2 L 674.4 341.4 L 672.7 339.5 L 671.4 338.1 L 669.6 334.3 L 668.9 330.4 L 669.2 326.5 L 670.4 322.9 L 672.4 319.8 L 675.1 317.3 L 678.4 315.6 L 681.8 314.7 L 685.4 314.8 L 688.7 315.7 L 691.7 317.4 L 694.1 319.8 L 695.8 322.6 L 696.7 325.7 L 696.9 329.0 L 698.3 329.1 L 698.8 325.5 L 698.3 321.7 L 696.7 318.0 L 694.1 314.6 L 690.6 311.9 L 686.4 310.1 L 681.6 309.5 L 676.7 310.1 L 671.9 312.0 L 667.6 315.1 L 664.1 319.4 L 661.8 324.6 L 660.8 330.4 L 661.3 336.4 L 663.2 342.0 L 665.0 345.1 L 666.7 347.7 L 668.6 350.2 L 670.6 352.7 L 672.8 355.1 L 675.1 357.4 L 677.5 359.7 L 680.0 361.9 L 682.6 364.1 L 685.2 366.2 L 687.8 368.3 L 690.5 370.4 L 693.1 372.4 L 695.7 374.3 L 698.3 376.2 L 700.8 378.1 L 703.2 379.9 L 705.6 381.7 L 707.8 383.5 L 709.9 385.2 L 711.8 386.8 L 713.6 388.4 L 715.1 389.9 L 716.4 391.3 L 717.4 392.6 L 718.2 393.8 L 718.6 394.7 L 718.7 395.3 L 718.6 395.6 L 718.4 395.4 L 718.1 394.9 L 718.0 394.1 L 718.0 393.5 L 717.9 393.2 L 717.7 393.2 L 717.1 393.5 L 716.0 394.1 L 714.4 395.0 L 712.0 396.1 Z"/></g>
<path d="M 400.0 221.8 L 405.5 244.2 L 427.9 249.8 L 405.5 255.3 L 400.0 277.7 L 394.4 255.3 L 372.0 249.8 L 394.4 244.2 Z" fill="#ffffff"/><path d="M 400.0 237.2 L 402.4 247.3 L 412.5 249.8 L 402.4 252.2 L 400.0 262.3 L 397.5 252.2 L 387.4 249.8 L 397.5 247.3 Z" fill="#c8f5ff"/><path d="M 660.9 450.6 L 665.4 468.5 L 683.3 472.9 L 665.4 477.4 L 660.9 495.3 L 656.5 477.4 L 638.6 472.9 L 656.5 468.5 Z" fill="#ffffff"/><path d="M 660.9 462.9 L 662.9 471.0 L 671.0 472.9 L 662.9 474.9 L 660.9 483.0 L 658.9 474.9 L 650.9 472.9 L 658.9 471.0 Z" fill="#c8f5ff"/><path d="M 488.1 430.4 L 491.4 443.9 L 504.9 447.2 L 491.4 450.5 L 488.1 464.0 L 484.8 450.5 L 471.3 447.2 L 484.8 443.9 Z" fill="#ffffff"/><path d="M 488.1 439.6 L 489.6 445.7 L 495.6 447.2 L 489.6 448.7 L 488.1 454.7 L 486.6 448.7 L 480.5 447.2 L 486.6 445.7 Z" fill="#c8f5ff"/><path d="M 152.3 480.8 L 156.0 495.7 L 171.0 499.4 L 156.0 503.1 L 152.3 518.1 L 148.7 503.1 L 133.7 499.4 L 148.7 495.7 Z" fill="#ffffff"/><path d="M 152.3 491.0 L 154.0 497.8 L 160.7 499.4 L 154.0 501.1 L 152.3 507.8 L 150.7 501.1 L 144.0 499.4 L 150.7 497.8 Z" fill="#c8f5ff"/>
</g></svg>